<?xml version="1.0" standalone="no"?>
<!DOCTYPE svg PUBLIC "-//W3C//DTD SVG 20010904//EN"
 "http://www.w3.org/TR/2001/REC-SVG-20010904/DTD/svg10.dtd">
<svg version="1.0" xmlns="http://www.w3.org/2000/svg"
 width="512.000000pt" height="512.000000pt" viewBox="0 0 512.000000 512.000000"
 preserveAspectRatio="xMidYMid meet">

<g transform="translate(0.000000,512.000000) scale(0.100000,-0.100000)"
fill="#000000" stroke="none">
<path d="M2375 4213 c-865 -75 -1550 -740 -1644 -1595 -38 -343 22 -676 180
-993 249 -502 705 -850 1269 -966 102 -21 141 -24 340 -24 205 1 236 3 351 28
710 151 1255 692 1399 1392 151 730 -155 1465 -780 1875 -322 211 -736 316
-1115 283z m-55 -132 c0 -15 -42 -41 -67 -41 -27 0 -30 -15 -6 -28 10 -6 14
-16 10 -26 -4 -10 -12 -14 -18 -10 -18 11 -109 -37 -109 -57 0 -14 10 -19 45
-21 57 -4 64 -22 10 -26 -54 -4 -60 -14 -28 -44 27 -25 30 -25 95 -15 64 10
69 9 106 -16 24 -16 48 -44 62 -72 20 -40 21 -51 11 -90 -6 -24 -11 -46 -11
-49 0 -3 19 -6 43 -8 35 -2 43 -7 45 -26 3 -20 0 -22 -30 -20 -32 3 -33 2 -33
-32 0 -30 3 -35 27 -38 19 -2 28 2 33 17 3 12 11 21 16 21 16 0 0 -63 -21 -80
-40 -34 -51 -89 -25 -124 8 -11 15 -28 15 -39 0 -11 9 -21 20 -24 16 -4 19
-11 14 -27 -17 -57 9 -97 104 -156 55 -34 72 -37 72 -14 0 8 11 34 24 57 14
23 30 71 36 107 14 78 23 90 65 90 37 0 79 29 100 71 13 24 23 29 65 35 29 4
56 14 66 25 9 11 24 19 32 19 40 0 65 57 43 98 -5 9 -12 40 -16 68 -6 46 -5
52 14 57 12 3 21 13 21 25 0 11 7 22 15 26 24 9 17 25 -17 39 -18 8 -42 24
-52 36 -20 22 -20 22 2 28 32 8 27 28 -13 53 -30 18 -34 25 -29 48 8 34 22 52
40 52 8 0 14 7 14 15 0 8 7 15 15 15 32 0 296 -144 385 -211 187 -139 369
-343 474 -530 56 -99 54 -93 41 -98 -5 -2 -28 28 -50 65 -28 47 -48 70 -62 72
-12 2 -32 19 -43 38 -12 19 -24 34 -26 34 -14 0 -44 -22 -44 -32 0 -6 -11 -21
-24 -33 -21 -20 -23 -27 -16 -66 13 -67 2 -98 -51 -148 l-48 -46 6 -78 6 -78
47 6 c43 6 49 4 69 -21 22 -27 29 -84 11 -84 -6 0 -14 10 -19 23 -13 34 -39
53 -53 39 -9 -9 -9 -25 -1 -63 9 -47 8 -52 -8 -56 -10 -3 -35 -34 -54 -69 -20
-36 -40 -62 -46 -59 -5 4 -21 -1 -36 -9 -16 -8 -36 -17 -45 -20 -27 -8 -22
-25 12 -44 32 -18 44 -44 38 -83 -3 -23 -7 -24 -67 -21 -73 2 -84 -6 -75 -54
3 -17 0 -50 -6 -73 -12 -47 -2 -71 31 -71 20 0 35 -39 26 -65 -4 -8 -22 -21
-42 -29 -34 -14 -35 -17 -35 -66 0 -47 -2 -52 -32 -68 -91 -48 -142 -144 -111
-210 15 -31 15 -34 -6 -56 -30 -32 -28 -79 5 -105 14 -11 29 -33 33 -48 5 -19
19 -34 45 -47 33 -16 43 -17 76 -6 21 7 46 10 55 7 9 -4 32 5 56 23 35 25 44
28 63 18 11 -7 31 -11 43 -9 39 4 44 -8 18 -43 -32 -42 -32 -64 1 -76 23 -9
26 -14 20 -43 -4 -17 -23 -59 -43 -91 -31 -51 -36 -67 -36 -119 1 -55 -2 -63
-31 -89 -50 -47 -214 -152 -312 -201 -252 -127 -549 -187 -842 -173 -165 9
-170 11 -140 44 26 28 77 52 111 52 13 0 33 11 45 25 12 13 28 22 35 19 14 -5
97 64 97 81 0 16 43 55 62 55 32 0 97 31 112 54 8 13 18 39 21 59 5 25 21 48
51 76 47 43 54 68 26 94 -26 24 -103 49 -130 42 -15 -4 -32 2 -49 15 -14 11
-38 20 -54 20 -45 0 -58 10 -69 51 -12 44 -49 69 -102 69 -24 0 -53 14 -103
50 -63 45 -74 50 -125 50 -44 0 -63 6 -99 30 -34 23 -47 27 -57 19 -8 -6 -14
-18 -14 -25 0 -7 -12 -21 -26 -30 -22 -15 -33 -16 -92 -5 -81 15 -92 23 -92
71 0 41 -19 64 -62 74 -26 6 -28 10 -28 61 0 43 -4 56 -19 65 -31 16 -38 12
-55 -30 -17 -43 -31 -48 -75 -25 -55 28 -74 139 -35 206 25 42 49 48 79 19
l22 -21 37 22 c49 29 76 20 120 -41 23 -31 43 -50 56 -50 25 0 26 23 1 58 -11
15 -23 43 -26 63 -7 39 -7 39 75 92 29 19 39 36 60 97 22 67 29 77 63 93 24
12 37 25 37 39 0 26 62 88 89 88 18 0 20 -4 15 -25 -7 -29 15 -35 35 -11 7 8
25 18 41 21 31 7 67 41 56 52 -4 5 -26 12 -49 18 -33 8 -45 17 -57 42 -17 36
-31 41 -51 17 -14 -17 -62 -44 -79 -44 -6 0 5 16 25 35 19 20 35 40 35 45 0
16 66 11 80 -5 7 -8 23 -15 36 -15 21 0 23 4 18 24 -5 20 -1 24 23 29 15 3 38
8 51 12 27 9 29 -10 5 -53 -20 -34 -12 -66 15 -58 11 4 29 -2 45 -14 28 -22
73 -27 79 -8 7 21 -36 87 -61 93 -19 5 -22 11 -18 33 20 100 20 100 -3 112
-11 6 -25 22 -30 36 -6 14 -17 24 -30 24 -29 0 -60 35 -60 69 0 16 -6 34 -14
40 -8 6 -24 34 -35 62 -24 55 -44 60 -49 11 -4 -42 -23 -55 -64 -44 -29 7 -33
12 -30 38 7 71 -43 118 -121 112 l-42 -3 -3 -54 c-2 -29 -10 -63 -18 -76 -13
-20 -12 -25 7 -49 29 -37 27 -72 -6 -106 -24 -25 -27 -35 -22 -67 8 -47 -3
-66 -34 -61 -21 3 -24 9 -27 53 -4 58 -17 78 -49 72 -14 -2 -35 5 -54 18 -17
13 -42 28 -57 34 -15 6 -42 33 -60 60 -29 42 -32 51 -22 76 12 32 109 155 122
155 5 0 17 18 27 41 19 42 35 34 19 -10 -5 -15 -4 -28 3 -37 14 -17 49 -19 49
-3 0 7 11 8 30 4 27 -6 30 -4 30 18 0 13 -9 32 -21 43 -23 21 -19 53 12 92 35
45 20 132 -24 132 -17 0 -28 -12 -46 -50 -25 -53 -41 -57 -41 -9 0 19 -5 29
-15 29 -8 0 -15 -7 -15 -15 0 -8 -4 -15 -10 -15 -9 0 -28 56 -32 100 -4 35
-39 34 -52 -2 -7 -20 -6 -35 4 -53 17 -32 7 -42 -26 -26 -31 14 -44 7 -44 -25
0 -31 -35 -66 -63 -62 -32 4 -33 39 -2 68 29 27 31 42 9 75 -16 25 -16 70 1
108 5 13 2 17 -14 17 -16 0 -23 -10 -32 -45 -6 -25 -13 -45 -16 -45 -2 0 -25
11 -51 25 -60 32 -93 32 -131 -1 -25 -21 -51 -74 -51 -106 0 -14 37 -8 51 8
11 14 13 14 21 0 11 -19 39 -21 56 -4 14 14 27 4 19 -15 -3 -8 -19 -17 -36
-20 -17 -4 -31 -11 -31 -16 0 -13 63 -51 84 -51 9 0 16 -8 16 -19 0 -17 -5
-19 -34 -14 -19 3 -36 1 -40 -6 -12 -19 -26 -12 -26 13 0 13 -7 27 -16 30 -51
20 -162 -12 -184 -53 -10 -19 -60 -31 -60 -15 0 27 149 233 237 328 l52 55 46
-25 c45 -26 46 -26 72 -7 14 10 38 25 52 34 30 18 38 44 21 64 -18 21 -29 18
-40 -10 -11 -29 -22 -31 -40 -10 -17 20 -30 19 -57 -7 -13 -12 -25 -19 -27
-17 -14 13 231 193 357 263 64 35 97 42 69 14 -30 -30 3 -82 39 -60 10 7 21
12 24 12 9 0 5 -49 -5 -55 -5 -3 -10 -13 -10 -21 0 -17 55 -20 66 -3 4 7 23 9
52 5 51 -7 72 5 72 39 0 13 9 26 25 33 13 6 34 30 45 52 12 23 35 49 52 58 18
9 50 33 72 53 23 20 48 39 56 42 25 9 60 8 60 -2z m595 -11 c3 -5 4 -14 0 -20
-8 -13 -35 -1 -35 16 0 16 26 19 35 4z m83 -37 c-5 -25 -28 -28 -28 -4 0 12 6
21 16 21 9 0 14 -7 12 -17z m-2050 -1165 c5 -7 15 -32 21 -54 6 -23 18 -47 26
-54 24 -20 53 -91 75 -185 17 -71 20 -106 15 -166 -9 -100 6 -153 56 -204 28
-29 43 -57 54 -98 15 -58 97 -192 118 -192 22 0 16 23 -18 67 -21 26 -38 62
-42 84 l-6 39 40 -60 c22 -33 54 -77 72 -99 20 -26 31 -50 31 -71 0 -27 9 -40
56 -79 31 -25 75 -50 98 -56 22 -6 79 -28 125 -48 64 -29 89 -45 108 -74 32
-47 57 -64 111 -73 75 -12 94 -56 45 -108 -22 -22 -28 -39 -30 -78 -1 -43 2
-53 30 -80 18 -17 43 -52 57 -77 16 -30 40 -55 69 -71 24 -15 53 -38 64 -53
19 -25 19 -33 9 -135 -9 -92 -9 -109 4 -116 15 -9 19 -43 5 -51 -12 -8 -141
30 -256 75 -203 79 -383 198 -556 369 -318 314 -484 684 -506 1130 -6 137 10
337 33 402 8 22 14 53 14 69 0 43 54 75 78 47z"/>
</g>
</svg>
